<?xml version="1.0" encoding="utf-8"?>
<!-- Generator: Adobe Illustrator 22.0.1, SVG Export Plug-In . SVG Version: 6.00 Build 0)  -->
<svg version="1.1" id="Layer_1" xmlns="http://www.w3.org/2000/svg" xmlns:xlink="http://www.w3.org/1999/xlink" x="0px" y="0px"
	 viewBox="0 0 270 162" style="enable-background:new 0 0 270 162;" xml:space="preserve">
<style type="text/css">
	.st0{fill:#414042;}
	.st1{fill:#006084;}
	.st2{display:none;}
	.st3{display:inline;fill:#FFFFFF;}
	.st4{font-family:'BebasNeue';}
	.st5{font-size:10.8777px;}
	.st6{letter-spacing:3;}
	.st7{display:inline;}
	.st8{fill:#FFFFFF;}
	.st9{display:inline;fill:#FFFFFF;stroke:#FFFFFF;stroke-width:0.7689;stroke-linejoin:round;stroke-miterlimit:10;}
</style>
<g>
	<path class="st0" d="M15.3,113.1h1.4v7.8h2.4v1.3h-3.8V113.1z"/>
	<path class="st0" d="M28.9,122.2h-1.4l-0.2-1.7h-1.8l-0.2,1.7h-1.3l1.5-9.1h2.1L28.9,122.2z M25.6,119.3H27l-0.7-4.6h0L25.6,119.3z
		"/>
	<path class="st0" d="M36,113c1.4,0,2.1,0.8,2.1,2.3v0.3h-1.4v-0.4c0-0.7-0.3-0.9-0.7-0.9s-0.7,0.2-0.7,0.9c0,0.7,0.3,1.2,1.2,2
		c1.2,1.1,1.6,1.8,1.6,2.9c0,1.5-0.7,2.3-2.1,2.3c-1.4,0-2.1-0.8-2.1-2.3v-0.6h1.4v0.7c0,0.7,0.3,0.9,0.7,0.9c0.5,0,0.7-0.2,0.7-0.9
		c0-0.7-0.3-1.2-1.2-2c-1.2-1.1-1.6-1.8-1.6-2.9C33.9,113.8,34.6,113,36,113z"/>
	<path class="st0" d="M44.9,116.9h2v1.3h-2v2.7h2.5v1.3h-3.9v-9.1h3.9v1.3h-2.5V116.9z"/>
	<path class="st0" d="M55.7,122.2c-0.1-0.2-0.1-0.4-0.1-1.1v-1.4c0-0.8-0.3-1.2-0.9-1.2h-0.5v3.7h-1.4v-9.1h2.2
		c1.5,0,2.1,0.7,2.1,2.1v0.7c0,0.9-0.3,1.5-0.9,1.8v0c0.7,0.3,1,1,1,1.9v1.4c0,0.4,0,0.8,0.2,1.1H55.7z M54.2,114.4v2.8h0.6
		c0.5,0,0.9-0.2,0.9-1v-0.9c0-0.7-0.2-0.9-0.7-0.9H54.2z"/>
	<path class="st0" d="M70.4,116.9h2v1.3h-2v2.7h2.5v1.3H69v-9.1h3.9v1.3h-2.5V116.9z"/>
	<path class="st0" d="M79.6,115.6L79.6,115.6l0,6.6h-1.3v-9.1h1.8l1.4,5.5h0v-5.5h1.3v9.1h-1.5L79.6,115.6z"/>
	<path class="st0" d="M90.5,117.1h2v2.9c0,1.5-0.7,2.3-2.1,2.3s-2.1-0.8-2.1-2.3v-4.7c0-1.5,0.7-2.3,2.1-2.3s2.1,0.8,2.1,2.3v0.9
		h-1.4v-1c0-0.7-0.3-0.9-0.7-0.9s-0.7,0.2-0.7,0.9v4.9c0,0.7,0.3,0.9,0.7,0.9s0.7-0.2,0.7-0.9v-1.7h-0.7V117.1z"/>
	<path class="st0" d="M100.9,122.2c-0.1-0.2-0.1-0.4-0.1-1.1v-1.4c0-0.8-0.3-1.2-0.9-1.2h-0.5v3.7h-1.4v-9.1h2.2
		c1.5,0,2.1,0.7,2.1,2.1v0.7c0,0.9-0.3,1.5-0.9,1.8v0c0.7,0.3,1,1,1,1.9v1.4c0,0.4,0,0.8,0.2,1.1H100.9z M99.4,114.4v2.8h0.6
		c0.5,0,0.9-0.2,0.9-1v-0.9c0-0.7-0.2-0.9-0.7-0.9H99.4z"/>
	<path class="st0" d="M112.3,122.2h-1.4l-0.2-1.7h-1.8l-0.2,1.7h-1.3l1.5-9.1h2.1L112.3,122.2z M109,119.3h1.4l-0.7-4.6h0L109,119.3
		z"/>
	<path class="st0" d="M119.3,120.5L119.3,120.5l1.1-7.4h1.3l-1.4,9.1h-2.1l-1.4-9.1h1.4L119.3,120.5z"/>
	<path class="st0" d="M126.9,113.1h1.4v9.1h-1.4V113.1z"/>
	<path class="st0" d="M135.2,115.6L135.2,115.6l0,6.6h-1.3v-9.1h1.8l1.4,5.5h0v-5.5h1.3v9.1h-1.5L135.2,115.6z"/>
	<path class="st0" d="M146.1,117.1h2v2.9c0,1.5-0.7,2.3-2.1,2.3s-2.1-0.8-2.1-2.3v-4.7c0-1.5,0.7-2.3,2.1-2.3s2.1,0.8,2.1,2.3v0.9
		h-1.4v-1c0-0.7-0.3-0.9-0.7-0.9s-0.7,0.2-0.7,0.9v4.9c0,0.7,0.3,0.9,0.7,0.9s0.7-0.2,0.7-0.9v-1.7h-0.7V117.1z"/>
	<path class="st0" d="M161,117.4L161,117.4c-0.7-0.3-1-0.9-1-1.9v-0.2c0-1.5,0.7-2.3,2.1-2.3h1.6v1.3h-1.6c-0.5,0-0.7,0.2-0.7,0.9
		v0.6c0,0.7,0.3,1,0.9,1h0.6v-1h1.4v1h0.4v1.3h-0.4v3c0,0.4,0,0.8,0.2,1.1h-1.5c-0.1-0.2-0.1-0.3-0.1-0.7h0
		c-0.2,0.5-0.7,0.8-1.3,0.8c-1.1,0-1.6-0.7-1.6-2.1v-0.9C160,118.4,160.3,117.7,161,117.4z M162.2,121c0.4,0,0.7-0.2,0.7-0.8v-2.1
		h-0.5c-0.7,0-0.9,0.3-0.9,1.2v0.8C161.5,120.8,161.8,121,162.2,121z"/>
	<path class="st0" d="M181.1,122.2h-1.4l-0.2-1.7h-1.8l-0.2,1.7h-1.3l1.5-9.1h2.1L181.1,122.2z M177.8,119.3h1.4l-0.7-4.6h0
		L177.8,119.3z"/>
	<path class="st0" d="M189.2,117.3L189.2,117.3l-0.5,4.9h-2l-1-9.1h1.4l0.8,7.2h0l0.7-7.2h1.4l0.7,7.2h0l0.7-7.2h1.3l-1,9.1h-1.9
		L189.2,117.3z"/>
	<path class="st0" d="M202.3,122.2h-1.4l-0.2-1.7h-1.8l-0.2,1.7h-1.3l1.5-9.1h2.1L202.3,122.2z M199.1,119.3h1.4l-0.7-4.6h0
		L199.1,119.3z"/>
	<path class="st0" d="M210.5,122.2c-0.1-0.2-0.1-0.4-0.1-1.1v-1.4c0-0.8-0.3-1.2-0.9-1.2h-0.5v3.7h-1.4v-9.1h2.2
		c1.5,0,2.1,0.7,2.1,2.1v0.7c0,0.9-0.3,1.5-0.9,1.8v0c0.7,0.3,1,1,1,1.9v1.4c0,0.4,0,0.8,0.2,1.1H210.5z M208.9,114.4v2.8h0.6
		c0.5,0,0.9-0.2,0.9-1v-0.9c0-0.7-0.2-0.9-0.7-0.9H208.9z"/>
	<path class="st0" d="M217.2,113.1h2.3c1.4,0,2.1,0.8,2.1,2.3v4.6c0,1.5-0.7,2.3-2.1,2.3h-2.3V113.1z M218.7,114.4v6.5h0.8
		c0.5,0,0.7-0.2,0.7-0.9v-4.7c0-0.7-0.3-0.9-0.7-0.9H218.7z"/>
	<path class="st0" d="M229,113c1.4,0,2.1,0.8,2.1,2.3v0.3h-1.4v-0.4c0-0.7-0.3-0.9-0.7-0.9s-0.7,0.2-0.7,0.9c0,0.7,0.3,1.2,1.2,2
		c1.2,1.1,1.6,1.8,1.6,2.9c0,1.5-0.7,2.3-2.1,2.3s-2.1-0.8-2.1-2.3v-0.6h1.4v0.7c0,0.7,0.3,0.9,0.7,0.9s0.7-0.2,0.7-0.9
		c0-0.7-0.3-1.2-1.2-2c-1.2-1.1-1.6-1.8-1.6-2.9C226.9,113.8,227.6,113,229,113z"/>
</g>
<g>
	<path class="st0" d="M53.5,89.6c-1.4,0.9-2.1,2.5-2.1,4.9c0,1.7,0.4,3.1,1.2,4.1c0.8,1,2,1.6,3.4,1.6c1.5,0,2.7-0.5,3.5-1.5
		c0.8-1,1.3-2.4,1.3-4.2v-6c-1-0.2-1.8-0.3-2.4-0.3C56.5,88.3,54.9,88.7,53.5,89.6z"/>
	<path class="st0" d="M60.9,103h-0.2c-1.2,1.6-2.3,2.9-3.5,3.8c-0.1,0.1-0.3,0.1-0.4,0.2h4.1V103z"/>
	<path class="st0" d="M89.7,71.7c-1.7,0-2.9,0.5-3.5,1.6c-0.6,1-1,2.6-1,4.5V107h8.8V76.9c0-1.6-0.4-2.9-1.1-3.8
		C92.2,72.1,91.1,71.7,89.7,71.7z"/>
	<path class="st0" d="M27.7,34.5c-6.8,0-12.3,5.6-12.3,12.3V107h10.4V70.3h-4.4v-7h4.4v-6c0-2.2,0.3-4,1-5.5
		c0.6-1.5,1.5-2.7,2.6-3.7c1.1-1,2.3-1.7,3.7-2.1c1.4-0.4,2.8-0.7,4.2-0.7h4.1v8.4h-4c-1.7,0-2.6,1-2.6,3.1v6.5h6.6v7h-6.6V107h12.7
		c-0.6-0.3-1.1-0.7-1.6-1.1c-1-0.8-1.7-2-2.4-3.6c-0.6-1.5-0.9-3.5-0.9-6c0-2.5,0.2-4.7,0.6-6.6c0.4-1.9,1.1-3.5,2.2-4.7
		c1.1-1.2,2.5-2.2,4.3-2.8c1.8-0.6,4.1-0.9,6.9-0.9c0.6,0,1.3,0,1.9,0.1c0.6,0.1,1.4,0.1,2.4,0.2v-4.6c0-1.5-0.3-2.8-1-3.8
		c-0.6-1-1.8-1.5-3.5-1.5c-1.2,0-2.2,0.4-3.2,1.1c-1,0.8-1.6,1.9-1.9,3.3h-8.6c0.3-4,1.6-7.2,4-9.6c1.2-1.2,2.6-2.1,4.2-2.8
		c1.6-0.7,3.5-1,5.5-1c1.9,0,3.6,0.3,5.2,0.9c1.6,0.6,3,1.5,4.2,2.6c1.2,1.2,2.1,2.6,2.8,4.4s1,3.8,1,6.1V107h6.5V63.3h8.9v4.3h0.2
		c0.9-1.4,2.1-2.5,3.4-3.4c1.3-0.9,3-1.4,5-1.4c1.1,0,2.2,0.2,3.3,0.6s2.1,1,3,1.9c0.9,0.9,1.6,2,2.1,3.4c0.5,1.4,0.8,3,0.8,5V107
		h10.7V34.5H27.7z"/>
</g>
<g>
	<g>
		<path class="st1" d="M132.5,94.8c0,1.4,0.4,2.5,1.2,3.2c0.8,0.8,1.8,1.1,3.2,1.1c1.7,0,2.8-0.5,3.4-1.5c0.6-1,0.9-2,1-3h8.9
			c0,1.9-0.3,3.6-0.9,5.2c-0.6,1.6-1.5,3-2.7,4.2c-1.2,1.2-2.6,2.2-4.2,2.9c-1.6,0.7-3.5,1.1-5.5,1.1c-2.7,0-5.1-0.6-7.1-1.7
			c-2-1.2-3.5-2.7-4.5-4.6c-0.6-1.2-1.1-2.5-1.3-4c-0.2-1.5-0.3-3.2-0.3-5V78.1c0-1.8,0.1-3.5,0.3-5c0.2-1.5,0.7-2.9,1.3-4
			c1-1.9,2.6-3.5,4.5-4.6c2-1.2,4.3-1.7,7.1-1.7c2,0,3.9,0.3,5.5,1c1.7,0.7,3.1,1.7,4.2,2.9c1.1,1.3,2,2.8,2.6,4.5s0.9,3.6,0.9,5.7
			h-8.9c0-1.8-0.4-3.1-1.2-4c-0.8-0.8-1.9-1.3-3.2-1.3c-1.3,0-2.4,0.4-3.2,1.3c-0.8,0.8-1.2,2.1-1.2,3.8V94.8z"/>
		<path class="st1" d="M153.8,45.4h8.9v49.7c0,1.7,0.3,2.8,0.9,3.4c0.6,0.6,1.8,1,3.4,1.2v8.4c-2,0-3.9-0.2-5.5-0.5
			c-1.7-0.3-3.1-0.9-4.2-1.8c-1.1-0.9-2-2.2-2.6-3.8c-0.6-1.6-0.9-3.7-0.9-6.3V45.4z"/>
		<path class="st1" d="M197.2,107.6h-8.9v-4.3h-0.2c-0.9,1.4-2.1,2.5-3.4,3.5c-1.3,0.9-3,1.4-5,1.4c-1.1,0-2.2-0.2-3.3-0.6
			c-1.1-0.4-2.1-1-3-1.9c-0.9-0.9-1.6-2-2.1-3.4c-0.5-1.4-0.8-3-0.8-5v-34h8.9v30.6c0,1.6,0.4,2.9,1.1,3.8c0.8,0.9,1.8,1.4,3.2,1.4
			c1.7,0,2.9-0.5,3.5-1.6c0.6-1,1-2.6,1-4.5V63.3h8.9V107.6z"/>
		<path class="st1" d="M204.6,45.4h8.9v21.9h0.2c1-1.5,2.2-2.6,3.5-3.4c1.4-0.8,2.9-1.2,4.7-1.2c2.2,0,3.8,0.4,5,1.1
			c1.2,0.8,2.2,1.7,2.9,2.9c0.6,0.9,1,2.2,1.1,3.7c0.2,1.5,0.3,3.9,0.3,7.1v16.9c0,2.4-0.1,4.4-0.3,5.8c-0.2,1.5-0.6,2.7-1.1,3.7
			c-1.5,2.8-4.1,4.2-7.8,4.2c-2.2,0-3.9-0.4-5.1-1.3c-1.2-0.9-2.3-2-3.4-3.2v4h-8.9V45.4z M222.3,76.9c0-1.4-0.3-2.6-0.9-3.7
			c-0.6-1-1.8-1.6-3.4-1.6c-1.3,0-2.3,0.5-3.2,1.4c-0.8,0.9-1.3,2.1-1.3,3.4v17.2c0,1.6,0.4,3,1.2,4c0.8,1,1.9,1.5,3.2,1.5
			c1.5,0,2.6-0.6,3.3-1.7c0.7-1.1,1-2.6,1-4.4V76.9z"/>
	</g>
</g>
<g>
	<path class="st1" d="M239.6,60.6c0-0.2-0.1-0.3-0.3-0.3c-0.2,0-0.3,0.1-0.3,0.3c-0.4,11.9-0.7,23.7-1,35.6l-0.4,17.8
		c0,1.4-0.2,2.6-0.6,3.8c-0.4,1.2-1,2.4-1.8,3.4c-1.6,2-3.9,3.6-6.4,4.1c-0.6,0.1-1.3,0.2-1.9,0.3c-0.6,0-1.4,0-2.1,0l-4.5,0l-8.9,0
		l-17.8,0.1l-35.6,0.2l-142.5,0.8c-0.2,0-0.4,0.2-0.4,0.4c0,0.2,0.2,0.4,0.4,0.4l142.5,0.8l35.6,0.2l17.8,0.1l8.9,0l4.5,0
		c0.8,0,1.4,0,2.3,0c0.8,0,1.7-0.1,2.5-0.3c3.3-0.7,6.3-2.6,8.3-5.2c2.1-2.6,3.2-6,3.1-9.3l-0.4-17.8
		C240.3,84.3,240,72.5,239.6,60.6z"/>
	<path class="st1" d="M258.4,32.3c-0.1-0.2-0.4-0.3-0.6-0.2l-16.5,6.6c0,0,0,0,0-0.1c-0.1-0.1-0.2-0.2-0.3-0.3l5-13.3
		c0.1-0.2,0-0.5-0.3-0.6c-0.2-0.1-0.5,0-0.6,0.2l-5.5,13.1c-0.1,0-0.3,0-0.5,0l-10.5-23c-0.1-0.2-0.4-0.3-0.6-0.2
		c-0.2,0.1-0.3,0.4-0.2,0.6l9.5,23.3c0,0,0,0-0.1,0.1c-0.1,0.1-0.2,0.2-0.3,0.3l-13.3-5c-0.2-0.1-0.5,0-0.6,0.3
		c-0.1,0.2,0,0.5,0.2,0.6l12.6,5.3l-122.3-1.4v3.8l122.4-1.4l-15.7,7.3c-0.2,0.1-0.3,0.4-0.2,0.6c0.1,0.2,0.4,0.3,0.6,0.2l16.4-6.5
		c0,0,0,0,0,0c0.1,0.1,0.2,0.2,0.4,0.3l-5,13.3c-0.1,0.2,0,0.5,0.3,0.6c0.1,0,0.1,0,0.2,0c0.2,0,0.4-0.1,0.4-0.3l5.5-13.1
		c0.2,0,0.3,0,0.5,0l5,10.6c0.1,0.2,0.4,0.3,0.6,0.2c0.2-0.1,0.3-0.4,0.3-0.6l-4.1-11c0,0,0,0,0,0c0.1-0.1,0.2-0.2,0.3-0.3l13.3,5
		c0.2,0.1,0.5,0,0.6-0.3c0.1-0.2,0-0.5-0.2-0.6l-13.2-5.5c0-0.1,0-0.3,0-0.4l16.1-7.5C258.4,32.8,258.5,32.6,258.4,32.3z"/>
</g>
<g class="st2">
	<text transform="matrix(1 0 0 1 33.1019 120.4316)" class="st3 st4 st5 st6">laser engraving &amp; awards</text>
	<g class="st7">
		<g>
			<polygon class="st8" points="115.9,50.7 220.3,51.9 220.3,52.6 115.9,53.8 			"/>
		</g>
		<g>
			<path class="st8" d="M220.9,69c0.3,9.9,0.6,19.8,0.8,29.7l0.3,14.9c0.1,2.7-0.8,5.6-2.6,7.8c-1.7,2.2-4.2,3.8-7,4.3
				c-1.4,0.3-2.8,0.3-4,0.3l-3.7,0l-7.4,0l-14.9-0.1l-29.7-0.2L33.9,125c-0.2,0-0.3-0.2-0.3-0.3c0-0.2,0.2-0.3,0.3-0.3l118.9-0.7
				l29.7-0.2l14.9-0.1l7.4,0l3.7,0c1.3,0,2.3,0,3.4-0.3c2.1-0.5,4-1.8,5.3-3.5c1.3-1.7,2-3.8,2.1-6l0.3-14.9
				c0.2-9.9,0.5-19.8,0.8-29.7c0-0.1,0.1-0.3,0.3-0.2C220.8,68.8,220.9,68.9,220.9,69z"/>
		</g>
	</g>
	<g class="st7">
		<path class="st8" d="M65.7,93.2C64.6,94,64,95.4,64,97.4c0,1.4,0.3,2.5,1,3.4c0.7,0.9,1.6,1.3,2.8,1.3c1.3,0,2.2-0.4,3-1.2
			c0.7-0.8,1.1-2,1.1-3.5v-5c-0.8-0.1-1.5-0.2-2-0.2C68.2,92.1,66.8,92.5,65.7,93.2z"/>
		<path class="st8" d="M71.9,104.4h-0.1c-1,1.4-2,2.4-2.9,3.1c-0.1,0.1-0.3,0.1-0.4,0.2h3.5V104.4z"/>
		<path class="st8" d="M95.9,78.3c-1.4,0-2.4,0.4-2.9,1.3c-0.5,0.9-0.8,2.1-0.8,3.8v24.4h7.4V82.6c0-1.4-0.3-2.4-0.9-3.2
			C98,78.7,97.1,78.3,95.9,78.3z"/>
		<path class="st8" d="M44.2,47.2c-5.7,0-10.3,4.6-10.3,10.3v50.2h8.7V77.1h-3.6v-5.8h3.6v-5c0-1.8,0.3-3.3,0.8-4.6
			c0.5-1.2,1.2-2.3,2.2-3.1c0.9-0.8,1.9-1.4,3.1-1.7c1.1-0.4,2.3-0.5,3.5-0.5h3.4v7h-3.4c-1.5,0-2.2,0.9-2.2,2.5v5.4h5.5v5.8H50
			v30.6h10.6c-0.5-0.3-0.9-0.6-1.3-0.9c-0.8-0.7-1.5-1.7-2-3c-0.5-1.3-0.8-2.9-0.8-5c0-2.1,0.2-3.9,0.5-5.5c0.3-1.6,1-2.9,1.9-3.9
			c0.9-1,2.1-1.8,3.6-2.3c1.5-0.5,3.4-0.8,5.8-0.8c0.5,0,1.1,0,1.6,0.1c0.5,0,1.2,0.1,2,0.1v-3.9c0-1.3-0.3-2.3-0.8-3.1
			c-0.5-0.8-1.5-1.2-2.9-1.2c-1,0-1.9,0.3-2.7,0.9c-0.8,0.6-1.3,1.6-1.6,2.8h-7.2c0.2-3.3,1.4-6,3.4-8c1-1,2.1-1.7,3.5-2.3
			c1.4-0.6,2.9-0.8,4.6-0.8c1.6,0,3,0.2,4.4,0.7c1.4,0.5,2.5,1.2,3.5,2.2c1,1,1.8,2.2,2.4,3.6c0.6,1.5,0.9,3.2,0.9,5.1v25.2h5.5
			V71.3h7.4v3.6h0.1c0.8-1.2,1.7-2.1,2.8-2.9c1.1-0.8,2.5-1.1,4.2-1.1c0.9,0,1.8,0.2,2.8,0.5c0.9,0.3,1.7,0.8,2.5,1.6
			c0.7,0.7,1.3,1.7,1.7,2.8c0.4,1.1,0.7,2.5,0.7,4.2v27.9h8.9V47.2H44.2z"/>
	</g>
	<g class="st7">
		<g>
			<path class="st8" d="M131.6,97.6c0,1.2,0.3,2.1,1,2.7c0.7,0.6,1.5,0.9,2.7,0.9c1.4,0,2.3-0.4,2.8-1.2c0.5-0.8,0.7-1.7,0.8-2.5
				h7.4c0,1.6-0.3,3-0.8,4.4c-0.5,1.4-1.3,2.5-2.2,3.5c-1,1-2.1,1.8-3.5,2.4c-1.4,0.6-2.9,0.9-4.6,0.9c-2.3,0-4.2-0.5-5.9-1.5
				c-1.7-1-2.9-2.3-3.8-3.9c-0.5-1-0.9-2.1-1.1-3.4c-0.2-1.3-0.3-2.6-0.3-4.2V83.7c0-1.5,0.1-2.9,0.3-4.2c0.2-1.3,0.6-2.4,1.1-3.4
				c0.9-1.6,2.1-2.9,3.8-3.9c1.6-1,3.6-1.5,5.9-1.5c1.7,0,3.2,0.3,4.6,0.9c1.4,0.6,2.6,1.4,3.5,2.4c0.9,1,1.7,2.3,2.2,3.8
				s0.8,3,0.8,4.7h-7.4c0-1.5-0.3-2.6-1-3.3c-0.7-0.7-1.5-1.1-2.7-1.1c-1.1,0-2,0.4-2.7,1.1c-0.7,0.7-1,1.8-1,3.2V97.6z"/>
			<path class="st8" d="M149.4,56.3h7.4v41.5c0,1.4,0.3,2.4,0.8,2.9c0.5,0.5,1.5,0.8,2.9,1v7c-1.7,0-3.2-0.1-4.6-0.4
				c-1.4-0.3-2.6-0.8-3.5-1.5c-0.9-0.8-1.7-1.8-2.2-3.2c-0.5-1.4-0.8-3.1-0.8-5.2V56.3z"/>
			<path class="st8" d="M185.6,108.2h-7.4v-3.6H178c-0.8,1.2-1.7,2.1-2.8,2.9c-1.1,0.8-2.5,1.1-4.2,1.1c-0.9,0-1.8-0.2-2.8-0.5
				c-0.9-0.3-1.7-0.8-2.5-1.6c-0.7-0.7-1.3-1.7-1.7-2.8c-0.4-1.1-0.7-2.5-0.7-4.2V71.3h7.4v25.6c0,1.4,0.3,2.4,0.9,3.2
				c0.6,0.8,1.5,1.2,2.7,1.2c1.4,0,2.4-0.4,2.9-1.3c0.5-0.9,0.8-2.1,0.8-3.8V71.3h7.4V108.2z"/>
			<path class="st8" d="M191.7,56.3h7.4v18.3h0.1c0.8-1.2,1.8-2.1,2.9-2.8c1.1-0.7,2.4-1,3.9-1c1.8,0,3.2,0.3,4.2,0.9
				c1,0.6,1.8,1.4,2.4,2.4c0.5,0.8,0.8,1.8,0.9,3.1c0.1,1.3,0.2,3.2,0.2,5.9v14.1c0,2-0.1,3.7-0.3,4.9c-0.2,1.2-0.5,2.2-0.9,3.1
				c-1.3,2.3-3.4,3.5-6.5,3.5c-1.8,0-3.3-0.4-4.2-1.1c-1-0.7-1.9-1.6-2.8-2.7v3.4h-7.4V56.3z M206.5,82.6c0-1.2-0.3-2.2-0.8-3.1
				c-0.5-0.9-1.5-1.3-2.9-1.3c-1.1,0-2,0.4-2.7,1.1c-0.7,0.8-1.1,1.7-1.1,2.9v14.4c0,1.4,0.3,2.5,1,3.3c0.7,0.8,1.6,1.3,2.7,1.3
				c1.3,0,2.2-0.5,2.8-1.4c0.6-0.9,0.9-2.1,0.9-3.6V82.6z"/>
		</g>
	</g>
	<path class="st9" d="M211.5,31l8.1,19.8c-0.1,0.1-0.2,0.1-0.3,0.2c-0.1,0.1-0.2,0.3-0.3,0.5l-11.4-4.3l11.2,4.7
		c-0.1,0.3-0.1,0.6,0,0.9L205.1,59l14-5.6c0.1,0.1,0.1,0.2,0.2,0.2c0.1,0.1,0.3,0.2,0.5,0.3l-4.3,11.4l4.7-11.2
		c0.3,0.1,0.6,0.1,0.8,0l4.3,9.1l-3.5-9.5c0.1-0.1,0.2-0.1,0.2-0.1c0.1-0.1,0.2-0.3,0.3-0.5l11.4,4.3l-11.3-4.7
		c0.1-0.3,0.1-0.6,0-0.8l13.7-6.4l-14,5.6c-0.1-0.1-0.1-0.2-0.2-0.2c-0.1-0.1-0.3-0.2-0.5-0.3l4.3-11.4l-4.7,11.2
		c-0.3-0.1-0.6-0.1-0.8,0L211.5,31z"/>
</g>
</svg>
